HIERARCHY
ROOT Hips
{
	OFFSET 0.00000 0.00000 0.00000
	CHANNELS 6 Xposition Yposition Zposition Zrotation Yrotation Xrotation 
	JOINT LHipJoint
	{
		OFFSET 0 0 0
		CHANNELS 3 Zrotation Yrotation Xrotation
		JOINT LeftUpLeg
		{
			OFFSET 1.56857 -1.73443 1.15205
			CHANNELS 3 Zrotation Yrotation Xrotation
			JOINT LeftLeg
			{
				OFFSET 2.39362 -6.57643 0.00000
				CHANNELS 3 Zrotation Yrotation Xrotation
				JOINT LeftFoot
				{
					OFFSET 2.50952 -6.89485 0.00000
					CHANNELS 3 Zrotation Yrotation Xrotation
					JOINT LeftToeBase
					{
						OFFSET 0.17171 -0.47178 1.88682
						CHANNELS 3 Zrotation Yrotation Xrotation
						End Site
						{
							OFFSET 0.00000 -0.00000 0.98146
						}
					}
				}
			}
		}
	}
	JOINT RHipJoint
	{
		OFFSET 0 0 0
		CHANNELS 3 Zrotation Yrotation Xrotation
		JOINT RightUpLeg
		{
			OFFSET -1.28153 -1.73443 1.15205
			CHANNELS 3 Zrotation Yrotation Xrotation
			JOINT RightLeg
			{
				OFFSET -2.26861 -6.23296 0.00000
				CHANNELS 3 Zrotation Yrotation Xrotation
				JOINT RightFoot
				{
					OFFSET -2.54143 -6.98254 0.00000
					CHANNELS 3 Zrotation Yrotation Xrotation
					JOINT RightToeBase
					{
						OFFSET -0.23309 -0.64041 1.93119
						CHANNELS 3 Zrotation Yrotation Xrotation
						End Site
						{
							OFFSET -0.00000 -0.00000 1.02013
						}
					}
				}
			}
		}
	}
	JOINT LowerBack
	{
		OFFSET 0 0 0
		CHANNELS 3 Zrotation Yrotation Xrotation
		JOINT Spine
		{
			OFFSET -0.07096 2.10460 -0.27878
			CHANNELS 3 Zrotation Yrotation Xrotation
			JOINT Spine1
			{
				OFFSET -0.00826 2.13662 -0.08279
				CHANNELS 3 Zrotation Yrotation Xrotation
				JOINT Neck
				{
					OFFSET 0 0 0
					CHANNELS 3 Zrotation Yrotation Xrotation
					JOINT Neck1
					{
						OFFSET 0.03239 1.77799 0.24435
						CHANNELS 3 Zrotation Yrotation Xrotation
						JOINT Head
						{
							OFFSET 0.01026 1.74194 -0.49664
							CHANNELS 3 Zrotation Yrotation Xrotation
							End Site
							{
								OFFSET 0.00170 1.83057 -0.19653
							}
						}
					}
				}
				JOINT LeftShoulder
				{
					OFFSET 0 0 0
					CHANNELS 3 Zrotation Yrotation Xrotation
					JOINT LeftArm
					{
						OFFSET 3.19178 1.35907 -0.31412
						CHANNELS 3 Zrotation Yrotation Xrotation
						JOINT LeftForeArm
						{
							OFFSET 4.85247 -0.00000 -0.00000
							CHANNELS 3 Zrotation Yrotation Xrotation
							JOINT LeftHand
							{
								OFFSET 3.55584 -0.00000 0.00000
								CHANNELS 3 Zrotation Yrotation Xrotation
								JOINT LeftFingerBase
								{
									OFFSET 0 0 0
									CHANNELS 3 Zrotation Yrotation Xrotation
									JOINT LeftHandIndex1
									{
										OFFSET 0.69320 -0.00000 0.00000
										CHANNELS 3 Zrotation Yrotation Xrotation
										End Site
										{
											OFFSET 0.55888 -0.00000 0.00000
										}
									}
								}
								JOINT LThumb
								{
									OFFSET 0 0 0
									CHANNELS 3 Zrotation Yrotation Xrotation
									End Site
									{
										OFFSET 0.56741 -0.00000 0.56741
									}
								}
							}
						}
					}
				}
				JOINT RightShoulder
				{
					OFFSET 0 0 0
					CHANNELS 3 Zrotation Yrotation Xrotation
					JOINT RightArm
					{
						OFFSET -3.28999 1.24191 -0.26899
						CHANNELS 3 Zrotation Yrotation Xrotation
						JOINT RightForeArm
						{
							OFFSET -4.64462 -0.00000 0.00000
							CHANNELS 3 Zrotation Yrotation Xrotation
							JOINT RightHand
							{
								OFFSET -3.40703 -0.00000 0.00000
								CHANNELS 3 Zrotation Yrotation Xrotation
								JOINT RightFingerBase
								{
									OFFSET 0 0 0
									CHANNELS 3 Zrotation Yrotation Xrotation
									JOINT RightHandIndex1
									{
										OFFSET -0.61958 -0.00000 0.00000
										CHANNELS 3 Zrotation Yrotation Xrotation
										End Site
										{
											OFFSET -0.49952 -0.00000 0.00000
										}
									}
								}
								JOINT RThumb
								{
									OFFSET 0 0 0
									CHANNELS 3 Zrotation Yrotation Xrotation
									End Site
									{
										OFFSET -0.50715 -0.00000 0.50715
									}
								}
							}
						}
					}
				}
			}
		}
	}
}
MOTION
Frames: 12
Frame Time: .0083333
7.3626 16.6387 0.6377 289.0560 104.5250 288.5220 0.0000 0.0000 0.0000 -35.7805 9.9583 18.9890 0.0542 1.5030 4.1339 1.1294 -5.9639 -18.9909 0.0517 1.4677 4.0368 0.0000 0.0000 0.0000 -0.0047 0.0762 -22.5944 -0.1758 -2.7012 7.4479 -0.2870 3.6234 -9.5227 -0.5893 -4.9149 13.6660 -17.4107 -2.0232 3.5616 -2.2564 -3.2110 0.7089 7.4201 -1.5363 -0.4133 3.1814 2.2055 -23.2017 -1.5297 2.3119 17.5046 -0.7120 1.1195 9.3866 -0.0000 -0.0000 0.0000 -83.4969 -9.7856 57.1826 25.3433 -36.5528 -8.4935 -0.0000 0.0000 -1.8776 15.9198 -22.5941 -6.2539 -7.1250 0.0000 -0.0000 -8.1501 6.7763 7.2067 -0.0000 -0.0000 0.0000 85.4231 -20.9303 29.0113 -16.8080 26.6039 -4.0010 0.0000 0.0000 1.6187 -8.8086 -30.8077 4.5378 7.1250 -0.0000 -0.0000 25.7384 -59.1896 -9.3044
7.4934 16.6236 0.6403 289.4390 104.4080 289.0070 0.0000 0.0000 0.0000 -35.7519 9.5776 19.4629 0.0575 1.5473 4.2562 1.1435 -5.7320 -19.1219 0.0706 1.7139 4.7155 0.0000 0.0000 0.0000 0.1743 0.2691 -22.4948 -0.2183 -3.0078 8.3004 -0.2952 2.9582 -9.6694 -0.6128 -5.0103 13.9379 -17.2284 -1.9980 3.5401 -2.1321 -3.1769 0.6768 7.4546 -1.5186 -0.4485 3.1352 2.1501 -23.3953 -1.6077 2.2627 17.5683 -0.7377 1.0830 9.4417 -0.0000 0.0000 0.0000 -83.7310 -9.3915 57.5431 25.1940 -36.4016 -8.4048 -0.0000 0.0000 -1.8287 16.0473 -22.6212 -6.3133 -7.1250 0.0000 -0.0000 -8.0718 6.7320 7.1430 -0.0000 0.0000 0.0000 85.2878 -20.9762 29.0518 -16.8576 26.6697 -4.0232 0.0000 0.0000 1.8683 -8.4587 -30.7879 4.3530 7.1250 -0.0000 -0.0000 26.0767 -59.0931 -9.3762
7.6285 16.6105 0.6458 289.8400 104.4520 289.4880 0.0000 0.0000 0.0000 -35.8938 9.1554 19.9999 0.0603 1.5847 4.3592 1.1673 -5.3732 -19.3467 0.0593 1.5715 4.3229 0.0000 0.0000 0.0000 0.2216 0.2185 -22.3696 -0.2600 -3.2802 9.0599 -0.2913 1.9898 -9.6966 -0.5009 -4.5370 12.5926 -17.1601 -2.0034 3.4892 -2.1265 -3.1753 0.6480 7.4219 -1.5163 -0.4548 3.1512 2.1240 -23.2548 -1.5454 2.2099 17.4251 -0.7273 1.0673 9.3651 -0.0000 -0.0000 0.0000 -83.8246 -9.0366 57.9068 24.9204 -36.1225 -8.2429 -0.0000 0.0000 -1.5172 16.4370 -22.5959 -6.4672 -7.1250 0.0000 -0.0000 -7.8263 6.7052 6.9255 -0.0000 -0.0000 0.0000 85.3698 -20.9074 28.8289 -16.7141 26.4794 -3.9590 0.0000 0.0000 2.2602 -8.2647 -30.5167 4.2185 7.1250 -0.0000 -0.0000 26.0488 -58.8087 -9.1853
7.7704 16.6010 0.6531 290.8310 104.3750 290.5000 0.0000 0.0000 0.0000 -35.7607 8.8340 20.6056 0.0633 1.6239 4.4672 1.1805 -4.9652 -19.4920 0.0157 0.8101 2.2264 0.0000 0.0000 0.0000 0.4699 0.0547 -21.9874 -0.2739 -3.3663 9.3004 -0.2393 0.3837 -9.1105 -0.4872 -4.4758 12.4192 -16.9469 -2.0422 3.4778 -2.0819 -3.2234 0.6216 7.3542 -1.5392 -0.4747 3.3141 2.2135 -23.2677 -1.5843 2.2836 17.3092 -0.7565 1.1074 9.3311 -0.0000 0.0000 0.0000 -83.9061 -8.5681 58.1383 24.8082 -36.0073 -8.1769 -0.0000 0.0000 -1.6873 16.0912 -22.4529 -6.2871 -7.1250 0.0000 -0.0000 -8.0347 6.8968 7.0835 -0.0000 0.0000 0.0000 85.4237 -20.7870 28.7738 -16.5248 26.2271 -3.8750 0.0000 0.0000 2.5105 -8.0743 -30.4332 4.1101 7.1250 -0.0000 -0.0000 26.1728 -58.6923 -9.1587
7.9139 16.5949 0.6598 291.9080 104.1300 291.5950 0.0000 0.0000 0.0000 -35.4063 8.5748 21.1637 0.0677 1.6792 4.6199 1.1826 -4.6645 -19.5388 0.0008 0.1802 0.4950 0.0000 0.0000 0.0000 0.9245 -0.2181 -21.5257 -0.2571 -3.2625 9.0105 -0.1594 -1.2304 -8.0971 -0.5490 -4.7465 13.1869 -16.5753 -2.0429 3.4683 -1.9434 -3.2197 0.6019 7.3004 -1.5389 -0.5053 3.4416 2.2315 -23.5021 -1.8567 2.3199 17.4458 -0.8654 1.0997 9.4258 0.0000 0.0000 0.0000 -84.1193 -8.0902 58.3157 24.7866 -35.9851 -8.1642 -0.0000 0.0000 -2.2423 15.1643 -22.2480 -5.8589 -7.1250 0.0000 -0.0000 -8.6055 7.2246 7.5427 0.0000 0.0000 0.0000 85.3167 -20.8023 29.0018 -16.5306 26.2348 -3.8775 0.0000 0.0000 2.3784 -7.9155 -30.7249 4.0633 7.1250 -0.0000 -0.0000 26.5733 -58.9156 -9.4562
8.0545 16.5899 0.6656 292.4050 103.8740 292.1680 0.0000 0.0000 0.0000 -35.1728 8.2575 21.6461 0.0719 1.7304 4.7613 1.1726 -4.3340 -19.4901 0.0002 0.0864 0.2374 0.0000 0.0000 0.0000 1.3319 -0.6316 -21.2856 -0.2340 -3.1136 8.5950 -0.0722 -2.5555 -6.6798 -0.6801 -5.2728 14.6882 -16.2331 -2.0309 3.4162 -1.8219 -3.1987 0.5155 7.2436 -1.5223 -0.5872 3.4738 2.2539 -23.4061 -1.9468 2.3634 17.4038 -0.8962 1.1120 9.3973 -0.0000 0.0000 0.0000 -84.3014 -7.5846 58.4800 24.6402 -35.8339 -8.0783 -0.0000 0.0000 -2.4922 14.5661 -22.2146 -5.6109 -7.1250 0.0000 -0.0000 -8.9796 7.3332 7.8597 -0.0000 0.0000 0.0000 85.2095 -20.9675 29.1520 -16.6427 26.3844 -3.9272 0.0000 0.0000 2.3370 -7.8243 -30.8343 4.0289 7.1250 -0.0000 -0.0000 26.7566 -58.9918 -9.5771
8.1999 16.5889 0.6702 292.6360 103.7990 292.4780 0.0000 0.0000 0.0000 -35.1840 7.9609 22.1103 0.0782 1.8042 4.9648 1.1558 -3.9884 -19.3882 0.0001 0.0507 0.1392 0.0000 0.0000 0.0000 1.4914 -1.3924 -21.2127 -0.2198 -3.0180 8.3288 -0.0256 -3.0003 -5.4845 -0.8296 -5.8108 16.2364 -16.1099 -2.0747 3.2278 -1.7720 -3.2188 0.5099 7.2208 -1.5416 -0.4859 3.5117 2.3282 -23.2939 -1.8481 2.4304 17.1974 -0.8588 1.1572 9.3066 -0.0000 -0.0000 0.0000 -84.3955 -7.1417 58.6244 24.3486 -35.5307 -7.9082 -0.0000 0.0000 -2.2203 14.5067 -22.2499 -5.5955 -7.1250 0.0000 -0.0000 -9.0186 7.3050 7.8997 -0.0000 -0.0000 0.0000 85.1978 -20.7914 28.9806 -16.5458 26.2551 -3.8843 0.0000 0.0000 2.7730 -7.7715 -30.4813 3.9602 7.1250 -0.0000 -0.0000 26.5168 -58.6680 -9.2744
8.3550 16.5961 0.6745 293.1160 103.5480 292.9540 0.0000 0.0000 0.0000 -34.9361 7.7715 22.6248 0.0861 1.8930 5.2100 1.1443 -3.6002 -19.3434 0.0079 -0.5744 -1.5784 0.0000 0.0000 0.0000 1.8902 -2.2710 -21.0783 -0.2155 -2.9883 8.2461 -0.0156 -2.6498 -4.6369 -0.9788 -6.2980 17.6515 -15.7393 -2.0572 3.0691 -1.7022 -3.1543 0.5461 7.0833 -1.5220 -0.3897 3.6278 2.3694 -23.4400 -1.8851 2.4489 17.1751 -0.8868 1.1680 9.3266 -0.0000 -0.0000 0.0000 -84.5380 -6.6306 58.8969 23.9160 -35.0753 -7.6582 -0.0000 0.0000 -1.6646 15.1897 -22.3886 -5.9040 -7.1250 0.0000 -0.0000 -8.5966 7.0793 7.5594 -0.0000 -0.0000 0.0000 85.1791 -20.4867 28.9494 -16.3486 25.9910 -3.7974 0.0000 0.0000 3.0091 -7.8625 -30.2436 3.9788 7.1250 -0.0000 -0.0000 26.2318 -58.4773 -9.0437
8.4947 16.6056 0.6869 295.3720 102.8950 295.2630 0.0000 0.0000 0.0000 -33.9543 7.4185 23.0096 0.0974 2.0124 5.5399 1.1131 -3.3285 -19.1105 0.0510 -1.4569 -4.0070 0.0000 0.0000 0.0000 2.8646 -2.7211 -20.9129 -0.2208 -3.0250 8.3483 -0.0123 -2.3555 -4.1223 -1.0933 -6.6448 18.6671 -14.8878 -2.0690 3.1629 -1.4397 -3.1866 0.4351 6.9037 -1.5276 -0.5876 3.6362 2.3992 -23.5054 -1.9313 2.4957 17.2303 -0.8970 1.1847 9.3594 0.0000 0.0000 0.0000 -84.8075 -5.9592 59.0794 23.4557 -34.5834 -7.3953 -0.0000 0.0000 -1.3956 15.7823 -22.6091 -6.2013 -7.1250 0.0000 -0.0000 -8.2370 6.7793 7.2847 0.0000 0.0000 0.0000 85.0228 -20.4280 29.2063 -16.3139 25.9444 -3.7822 0.0000 0.0000 2.8613 -7.9436 -30.3900 4.0378 7.1250 -0.0000 -0.0000 26.2690 -58.6251 -9.1523
8.6401 16.6214 0.6951 296.9280 102.1370 296.7790 0.0000 0.0000 0.0000 -32.9536 7.2356 23.4523 0.1080 2.1194 5.8357 1.0664 -2.8852 -18.7676 0.0830 -1.8581 -5.1136 0.0000 0.0000 0.0000 3.9014 -2.8309 -20.6576 -0.2412 -3.1609 8.7269 -0.0089 -1.9203 -3.4114 -1.2546 -7.1009 20.0148 -14.0979 -2.0552 3.1026 -1.1106 -3.1445 0.4450 6.8150 -1.5178 -0.5778 3.6092 2.4903 -23.5793 -1.9868 2.6383 17.1961 -0.8903 1.2418 9.3648 0.0000 -0.0000 0.0000 -85.1735 -5.4204 58.9341 23.0296 -34.1211 -7.1549 -0.0000 0.0000 -1.1552 15.6275 -22.6482 -6.1478 -7.1250 0.0000 -0.0000 -8.3361 6.7602 7.3774 0.0000 -0.0000 0.0000 84.7785 -20.2478 29.3301 -16.3061 25.9339 -3.7788 0.0000 0.0000 2.9633 -7.8139 -30.5982 3.9958 7.1250 -0.0000 -0.0000 26.5704 -58.7808 -9.3679
8.7911 16.6431 0.7008 297.2870 101.7570 297.0970 0.0000 0.0000 0.0000 -32.5391 7.0855 23.7837 0.1282 2.3084 6.3588 1.0270 -2.4055 -18.4988 0.0887 -1.9213 -5.2882 0.0000 0.0000 0.0000 4.4383 -3.1791 -20.4837 -0.2715 -3.3519 9.2599 -0.0052 -1.3441 -2.4620 -1.5232 -7.7931 22.0873 -13.7543 -2.0193 2.9203 -0.9272 -3.0532 0.5387 6.8078 -1.4929 -0.4039 3.6954 2.5652 -23.6138 -2.1293 2.7383 17.0218 -0.9390 1.2762 9.3160 0.0000 -0.0000 0.0000 -85.4597 -4.9016 58.7140 22.7068 -33.7667 -6.9747 -0.0000 0.0000 -0.8518 15.4961 -22.6259 -6.0883 -7.1250 0.0000 -0.0000 -8.4172 6.7999 7.4442 0.0000 -0.0000 0.0000 84.6429 -19.8328 29.1458 -16.1929 25.7815 -3.7295 0.0000 0.0000 3.4311 -7.6562 -30.6526 3.9206 7.1250 -0.0000 -0.0000 26.7743 -58.7939 -9.4551
8.9412 16.6650 0.7088 297.7340 101.4320 297.5720 0.0000 0.0000 0.0000 -32.2389 6.7892 24.0343 0.1538 2.5267 6.9637 0.9928 -1.9918 -18.2682 0.1332 -2.3522 -6.4802 0.0000 0.0000 0.0000 4.9849 -3.7959 -20.3011 -0.2882 -3.4522 9.5404 -0.0032 -0.8934 -1.7526 -1.6182 -8.0208 22.7773 -13.3547 -1.9702 2.8366 -0.8355 -2.9735 0.4750 6.6809 -1.4498 -0.4581 3.7807 2.5859 -23.4126 -2.1640 2.7511 16.8733 -0.9645 1.2850 9.2317 -0.0000 -0.0000 0.0000 -85.5811 -4.0600 58.6323 22.4181 -33.4463 -6.8148 -0.0000 0.0000 -0.7929 15.6699 -22.7163 -6.1826 -7.1250 0.0000 -0.0000 -8.3134 6.6856 7.3690 -0.0000 -0.0000 0.0000 84.6722 -19.6108 28.7965 -16.0926 25.6460 -3.6859 0.0000 0.0000 3.8732 -7.5575 -30.7727 3.8833 7.1250 -0.0000 -0.0000 26.9736 -58.8779 -9.5873
